<svg xmlns="http://www.w3.org/2000/svg" viewBox="0 0 10.0 10.0" width="32" height="32" fill="none"><defs /><g transform="translate(-750.0, -167.0)"><path d="M753.438 167.625C753.355 167.625 753.275 167.658 753.217 167.717C753.158 167.775 753.125 167.855 753.125 167.938V173.562C753.125 173.645 753.158 173.725 753.217 173.783C753.275 173.842 753.355 173.875 753.438 173.875H759.063C759.145 173.875 759.225 173.842 759.284 173.783C759.342 173.725 759.375 173.645 759.375 173.562V167.938C759.375 167.855 759.342 167.775 759.284 167.717C759.225 167.658 759.145 167.625 759.063 167.625H753.438ZM753.75 168.25H758.75V173.25H757.468C757.468 173.205 757.458 173.159 757.434 173.116L755.559 169.678C755.508 169.585 755.41 169.529 755.304 169.532C755.201 169.535 755.107 169.594 755.061 169.687L753.75 172.309V168.25ZM757.5 168.875C757.159 168.875 756.875 169.159 756.875 169.5C756.875 169.841 757.159 170.125 757.5 170.125C757.842 170.125 758.125 169.841 758.125 169.5C758.125 169.159 757.842 168.875 757.5 168.875Z" fill="#BCBCBC" />
<path opacity="0.693" fill-rule="evenodd" clip-rule="evenodd" d="M752.183 168.87C752.142 168.871 752.101 168.88 752.063 168.896C752.026 168.912 751.992 168.936 751.963 168.965C751.935 168.995 751.912 169.029 751.897 169.068C751.882 169.106 751.874 169.146 751.875 169.188V174.813C751.875 174.895 751.908 174.975 751.967 175.034C752.025 175.092 752.105 175.125 752.188 175.125H757.813C757.854 175.126 757.895 175.118 757.933 175.103C757.972 175.087 758.007 175.064 758.036 175.035C758.066 175.006 758.089 174.971 758.105 174.933C758.121 174.895 758.129 174.854 758.129 174.813C758.129 174.771 758.121 174.73 758.105 174.692C758.089 174.654 758.066 174.619 758.036 174.59C758.007 174.561 757.972 174.538 757.933 174.523C757.895 174.507 757.854 174.499 757.813 174.5H752.5V169.188C752.501 169.146 752.493 169.104 752.477 169.065C752.461 169.027 752.438 168.991 752.409 168.962C752.379 168.932 752.344 168.909 752.305 168.893C752.266 168.877 752.225 168.87 752.183 168.87ZM750.933 170.12C750.892 170.121 750.851 170.13 750.813 170.146C750.776 170.162 750.742 170.186 750.713 170.215C750.685 170.245 750.662 170.279 750.647 170.318C750.632 170.356 750.624 170.397 750.625 170.438V176.063C750.625 176.145 750.658 176.225 750.717 176.284C750.775 176.342 750.855 176.375 750.938 176.375H756.563C756.604 176.376 756.645 176.368 756.683 176.353C756.722 176.337 756.757 176.314 756.786 176.285C756.816 176.256 756.839 176.221 756.855 176.183C756.871 176.145 756.879 176.104 756.879 176.063C756.879 176.021 756.871 175.98 756.855 175.942C756.839 175.904 756.816 175.869 756.786 175.84C756.757 175.811 756.722 175.788 756.683 175.773C756.645 175.757 756.604 175.749 756.563 175.75H751.25V170.438C751.251 170.396 751.243 170.354 751.227 170.315C751.211 170.277 751.188 170.241 751.159 170.212C751.129 170.182 751.094 170.159 751.055 170.143C751.016 170.127 750.975 170.12 750.933 170.12Z" fill="#BCBCBC" />
</g></svg>