<svg xmlns="http://www.w3.org/2000/svg" viewBox="0 0 10.0 10.0" width="32" height="32" fill="none"><defs /><g transform="translate(-750.0, -143.0)"><path d="M751.562 143.625C751.049 143.625 750.625 144.049 750.625 144.562V147.688C750.625 148.201 751.25 148.625 751.562 148.625H751.875V146.75H751.562C751.14 146.756 751.14 146.119 751.562 146.125H758.438C758.86 146.119 758.86 146.756 758.438 146.75H758.125V148.625H758.438C758.951 148.625 759.375 148.201 759.375 147.688V144.562C759.375 144.049 758.951 143.625 758.438 143.625H758.125H751.875H751.562Z" fill="#BCBCBC" />
<path opacity="0.7" d="M752.5 146.75V152.062C752.5 152.235 752.64 152.375 752.812 152.375H757.188C757.36 152.375 757.5 152.235 757.5 152.062V146.75H752.5ZM756.25 148C756.591 148 756.875 148.284 756.875 148.625C756.875 148.966 756.591 149.25 756.25 149.25C755.909 149.25 755.625 148.966 755.625 148.625C755.625 148.284 755.909 148 756.25 148ZM754.683 149.25C754.789 149.248 754.889 149.301 754.948 149.389L756.198 151.264C756.336 151.472 756.187 151.75 755.938 151.75H753.438C753.188 151.75 753.039 151.472 753.177 151.264L754.427 149.389C754.484 149.304 754.58 149.252 754.683 149.25Z" fill="#BCBCBC" />
</g></svg>