<svg xmlns="http://www.w3.org/2000/svg" viewBox="0 0 10.0 10.0" width="32" height="32" fill="none"><defs /><g transform="translate(-1110.0, -84.0)"><path d="M1115.67 84.6207C1115.26 85.0185 1115 85.5714 1115 86.1832C1115 87.1207 1115.47 87.7457 1116.25 88.1486V88.1511V92.4333C1116.23 93.7011 1118.15 93.7011 1118.13 92.4333V88.1511V88.1498C1118.93 87.7341 1119.38 87.1208 1119.38 86.1833C1119.38 85.5714 1119.12 85.0185 1118.71 84.6208H1118.7H1118.13V86.4957L1117.5 87.1207H1116.88L1116.25 86.4957L1116.25 84.6207H1115.67ZM1116.88 92.1207H1117.5V92.7457H1116.88V92.1207Z" fill="#BCBCBC" />
<path d="M1112.5 88.3708V84.9333C1112.5 84.7569 1112.36 84.6131 1112.18 84.6159C1112.01 84.6184 1111.87 84.7607 1111.88 84.9333V88.3708H1112.5ZM1112.97 89.6208H1113.44C1113.86 89.627 1113.86 88.9898 1113.44 88.9958H1110.94C1110.52 88.9895 1110.52 89.6267 1110.94 89.6208H1111.41V90.2458C1110.94 90.2458 1110.63 90.5583 1110.63 91.027V91.8083C1110.63 92.299 1110.82 92.7086 1111.12 92.9753C1111.41 93.2419 1111.8 93.3708 1112.18 93.3708C1112.56 93.3708 1112.95 93.243 1113.25 92.9777C1113.55 92.7124 1113.75 92.3017 1113.75 91.8083V91.027C1113.75 90.5583 1113.44 90.2458 1112.97 90.2458V89.6208Z" fill="#BCBCBC" />
</g></svg>